<?xml version="1.0" standalone="no"?>
<!DOCTYPE svg PUBLIC "-//W3C//DTD SVG 20010904//EN"
 "http://www.w3.org/TR/2001/REC-SVG-20010904/DTD/svg10.dtd">
<svg version="1.0" xmlns="http://www.w3.org/2000/svg"
 width="900.000000pt" height="900.000000pt" viewBox="0 0 900.000000 900.000000"
 preserveAspectRatio="xMidYMid meet">
<metadata>
Created by potrace 1.10, written by Peter Selinger 2001-2011
</metadata>
<g transform="translate(0.000000,900.000000) scale(0.100000,-0.100000)"
fill="#000000" stroke="none">
<path d="M4746 6671 c-7 -10 27 -21 66 -21 15 0 29 -4 33 -9 3 -5 19 -13 37
-16 37 -9 176 -64 256 -102 234 -113 522 -338 681 -533 20 -25 44 -54 54 -65
10 -11 34 -45 54 -75 19 -30 48 -73 63 -95 27 -39 119 -216 148 -285 8 -19 18
-42 22 -50 4 -8 23 -69 44 -135 20 -66 42 -135 48 -154 5 -18 14 -61 19 -95 4
-33 13 -95 20 -136 13 -87 6 -640 -10 -705 -5 -22 -12 -62 -16 -89 -11 -81
-27 -38 -35 96 -10 155 -26 243 -77 418 -44 150 -263 538 -271 481 -2 -12 1
-27 6 -34 6 -7 15 -30 22 -52 6 -22 18 -62 26 -90 52 -174 72 -273 85 -419 11
-132 6 -149 -36 -126 -40 21 -40 6 -1 -58 35 -58 36 -62 36 -160 0 -125 -11
-138 -94 -106 -25 9 -20 -34 7 -70 13 -17 29 -52 37 -78 16 -62 5 -78 -56 -78
-49 0 -55 -14 -29 -60 21 -37 18 -87 -7 -120 -26 -35 -44 -37 -97 -9 -22 11
-48 19 -58 17 -20 -4 -20 -11 -4 -98 14 -71 9 -84 -37 -99 -37 -11 -37 -11
-77 34 -22 25 -45 45 -52 45 -6 0 -19 -20 -30 -45 -10 -25 -21 -45 -25 -45 -4
0 -22 9 -41 20 -42 25 -70 82 -65 136 l3 39 62 -3 c66 -4 103 3 103 20 0 8
-33 60 -73 113 -64 87 -106 152 -104 160 2 5 26 13 53 16 27 4 67 11 89 18 22
6 54 11 72 11 17 0 33 6 36 13 5 17 -3 47 -14 47 -5 0 -15 12 -23 28 -8 15
-23 36 -33 47 -10 11 -34 43 -53 70 -18 28 -53 76 -77 108 -24 31 -41 62 -38
67 4 6 55 10 121 10 94 0 116 3 120 15 6 14 -31 80 -65 115 -8 8 -26 33 -40
55 -14 22 -52 75 -83 117 -54 72 -69 106 -50 109 4 1 59 4 122 8 108 6 115 7
112 26 -2 11 -24 40 -50 64 -132 122 -272 266 -272 277 0 8 12 16 28 19 36 8
135 33 198 51 28 8 60 14 70 14 22 0 44 18 44 36 0 7 -66 52 -146 101 -80 48
-158 96 -172 105 -15 9 -38 23 -51 30 -48 26 -48 41 2 104 122 153 173 218
182 231 23 33 -17 40 -267 47 -134 4 -247 11 -252 16 -6 6 -3 24 6 47 22 54
39 103 47 138 4 17 13 39 18 50 6 11 14 42 18 69 l8 48 -39 -4 c-22 -3 -64
-15 -94 -27 -30 -13 -66 -26 -80 -31 -14 -5 -50 -18 -80 -31 -30 -12 -68 -22
-85 -23 -27 -1 -30 2 -28 29 2 17 11 56 20 88 21 75 13 84 -56 61 -28 -9 -54
-20 -57 -25 -3 -5 -15 -9 -27 -9 -13 0 -32 -6 -43 -14 -11 -8 -37 -18 -59 -22
l-38 -7 7 39 c34 189 28 210 -50 168 -72 -39 -96 -53 -129 -74 -57 -36 -87
-50 -97 -44 -5 3 -6 44 -2 100 l7 94 -24 0 c-13 0 -55 -20 -92 -45 -38 -25
-72 -45 -77 -45 -4 0 -13 -7 -20 -15 -7 -8 -23 -15 -36 -15 -18 0 -25 7 -29
28 -16 85 -42 177 -50 177 -5 0 -25 -24 -46 -54 -21 -30 -47 -63 -58 -75 -21
-20 -21 -20 -56 -2 -55 30 -153 18 -257 -32 -116 -55 -157 -72 -172 -72 -17 0
-86 -75 -86 -93 0 -19 -38 -51 -90 -78 -74 -37 -90 -56 -90 -108 0 -69 8 -75
76 -66 33 3 97 19 144 35 47 15 97 31 112 34 14 3 33 9 42 12 10 4 16 1 16 -8
0 -20 -96 -88 -160 -115 -54 -22 -90 -53 -90 -78 0 -8 12 -27 26 -44 37 -44
70 -41 147 13 87 61 114 73 179 81 96 12 151 -1 196 -46 22 -22 45 -52 52 -67
6 -15 18 -40 26 -55 17 -34 18 -83 3 -92 -5 -4 -15 -17 -20 -28 -6 -12 -21
-42 -34 -67 -22 -41 -24 -57 -24 -187 -1 -154 -8 -180 -62 -221 -100 -79 -189
-67 -290 39 -48 50 -62 59 -91 59 -49 0 -53 -9 -16 -42 17 -15 28 -31 25 -35
-4 -4 -13 -1 -19 5 -17 17 -74 15 -114 -4 -49 -23 -44 -44 10 -44 50 0 79 -22
49 -38 -10 -5 -32 -13 -49 -16 -38 -9 -77 -47 -69 -69 5 -12 13 -13 38 -6 52
15 117 11 117 -6 0 -8 -4 -15 -8 -15 -16 0 -51 -37 -62 -65 -13 -35 1 -55 28
-39 123 76 177 89 249 59 52 -22 80 -19 122 13 38 30 138 92 147 92 3 0 49 20
102 45 145 68 152 71 222 98 187 72 318 95 434 77 133 -21 238 -57 373 -129
58 -31 213 -222 213 -264 0 -7 7 -22 15 -33 8 -10 15 -28 15 -38 0 -11 6 -42
14 -70 36 -129 47 -233 49 -451 2 -193 0 -227 -17 -280 -41 -129 -94 -220
-175 -302 -28 -28 -51 -54 -51 -57 0 -12 38 -5 50 9 7 8 19 15 28 15 8 0 63
48 121 108 90 90 113 120 147 192 67 139 98 226 109 301 7 52 38 92 49 64 10
-28 7 -68 -13 -161 -29 -129 -62 -206 -138 -321 -101 -153 -275 -287 -443
-342 -135 -45 -341 -59 -440 -30 -89 27 -181 75 -241 126 -56 48 -179 184
-192 213 -4 8 -17 31 -28 50 -91 153 -121 251 -121 406 0 127 13 177 70 277
23 40 52 72 95 103 123 90 227 124 378 124 105 0 147 -10 239 -56 49 -25 136
-114 155 -160 42 -101 56 -279 31 -389 -12 -50 -22 -67 -58 -99 -67 -60 -107
-76 -188 -76 -126 0 -192 54 -246 203 -17 48 -2 122 27 138 31 16 39 2 39 -64
1 -108 43 -169 138 -197 72 -22 159 16 205 90 19 31 22 49 21 150 0 103 -3
121 -27 172 -49 105 -151 182 -275 208 -172 35 -396 -76 -488 -242 -28 -52
-29 -56 -28 -188 2 -157 14 -198 111 -360 65 -107 202 -253 268 -284 22 -10
48 -23 58 -28 28 -14 168 -38 219 -38 52 0 139 20 178 42 111 60 245 182 275
250 9 18 19 40 24 48 23 42 33 65 52 120 19 57 21 77 17 273 -3 117 -10 237
-17 267 -46 201 -71 280 -115 353 -31 54 -139 156 -191 181 -22 10 -52 25 -67
33 -14 7 -34 13 -43 13 -10 0 -38 6 -64 14 -119 38 -164 46 -239 46 -45 0 -99
-6 -119 -14 -21 -7 -65 -21 -98 -31 -33 -10 -71 -24 -85 -31 -268 -128 -326
-162 -430 -249 -214 -178 -272 -285 -273 -500 0 -110 16 -207 48 -295 7 -19
23 -69 36 -110 12 -41 26 -82 29 -90 58 -125 83 -178 123 -251 67 -125 238
-312 394 -430 50 -38 94 -69 96 -69 3 0 29 -16 58 -36 60 -40 178 -98 248
-121 66 -22 141 -33 266 -40 124 -6 214 6 325 43 41 14 89 29 105 34 52 15
200 70 280 105 51 22 169 76 188 86 20 10 21 6 7 -21 -9 -17 -96 -87 -145
-117 -96 -58 -313 -143 -367 -143 -29 0 -48 -18 -26 -24 107 -32 185 -40 363
-40 144 0 203 4 245 16 89 26 161 41 167 34 11 -11 -41 -51 -107 -83 -60 -29
-76 -32 -200 -38 -136 -6 -363 12 -440 35 -19 5 -59 10 -89 10 -46 0 -52 -2
-41 -15 7 -8 28 -15 47 -15 18 0 50 -7 70 -15 19 -8 55 -15 78 -15 50 0 77 -8
69 -21 -8 -13 -117 -11 -224 6 -52 8 -115 15 -140 15 -93 0 -352 68 -515 135
-35 14 -179 85 -203 100 -82 50 -121 82 -211 172 -57 57 -112 108 -122 114
-34 18 -22 -18 31 -89 95 -129 115 -153 170 -205 181 -170 233 -198 495 -272
28 -8 73 -21 100 -29 83 -25 278 -40 410 -32 394 24 378 22 610 86 164 45 373
168 515 302 46 43 162 198 190 253 6 11 19 34 30 50 11 17 23 37 26 45 3 8 12
30 20 47 8 18 22 50 30 70 9 21 23 51 30 66 8 16 14 38 14 50 1 12 7 33 15 47
8 14 14 37 15 51 0 14 7 34 15 45 8 10 15 34 15 52 0 18 7 49 15 69 8 19 15
50 15 67 0 17 5 47 11 66 6 19 17 121 25 225 12 177 9 341 -11 530 -9 90 -71
342 -103 418 -7 16 -12 32 -12 37 0 5 -7 26 -16 47 -9 21 -23 52 -30 68 -20
49 -83 176 -117 235 -36 64 -152 244 -170 262 -7 7 -30 36 -52 63 -95 120
-230 246 -401 376 -173 131 -400 245 -604 302 -30 9 -79 23 -109 31 -61 18
-87 20 -95 7z m-1466 -389 c0 -9 -9 -23 -21 -30 -18 -11 -24 -11 -41 4 -18 17
-18 19 -2 31 27 19 64 17 64 -5z m1245 -247 c22 -9 54 -22 70 -30 17 -7 38
-16 48 -19 9 -3 17 -10 17 -16 0 -13 -63 -13 -76 0 -13 13 -199 40 -271 40
-108 -1 -264 -28 -352 -62 -53 -20 -33 25 22 50 115 54 164 62 352 57 109 -2
161 -8 190 -20z m44 -181 c111 -21 171 -39 252 -80 130 -63 277 -178 266 -207
-7 -20 -26 -12 -103 45 -28 21 -61 42 -75 48 -13 6 -39 19 -56 30 -124 75
-305 120 -482 120 -118 0 -336 -31 -355 -50 -12 -12 -63 -13 -70 -1 -12 19 63
56 184 90 87 25 317 28 439 5z m81 -217 c36 -13 74 -28 85 -32 105 -38 224
-113 308 -194 50 -47 137 -154 137 -167 0 -4 8 -16 17 -26 12 -13 14 -21 5
-30 -8 -8 -24 4 -59 42 -79 87 -124 129 -199 187 -76 57 -255 153 -286 153
-11 0 -31 6 -46 13 -43 22 -194 41 -259 33 -32 -3 -98 -11 -148 -16 -49 -6
-121 -19 -160 -31 -38 -11 -83 -24 -100 -29 -16 -4 -55 -18 -85 -30 -75 -30
-120 -37 -120 -17 0 8 6 18 13 21 6 3 26 15 42 26 62 40 154 74 280 104 93 21
139 24 340 21 152 -3 177 -6 235 -28z m-203 -177 c80 -11 163 -32 220 -57 17
-7 36 -13 43 -13 21 0 132 -62 195 -109 110 -81 209 -190 248 -271 4 -8 16
-28 26 -45 43 -66 88 -178 91 -225 6 -75 -11 -80 -41 -12 -134 302 -294 485
-519 593 -209 100 -499 116 -700 39 -30 -12 -62 -24 -71 -27 -9 -2 -43 -17
-75 -33 -67 -31 -90 -30 -72 3 13 26 64 64 108 82 8 4 23 11 34 17 102 55 336
81 513 58z m-60 -326 c80 -16 87 -19 163 -52 25 -11 52 -22 60 -26 80 -32 184
-133 219 -211 46 -104 81 -336 81 -542 l0 -174 -31 -62 c-17 -34 -37 -69 -45
-78 -8 -8 -14 -19 -14 -23 0 -14 -90 -125 -130 -159 -100 -86 -273 -133 -381
-104 -32 9 -82 28 -113 43 -60 29 -172 124 -187 158 -5 12 -18 35 -29 51 -30
47 -90 174 -90 191 0 9 -7 53 -16 98 -16 79 -16 87 1 142 31 101 105 197 180
237 83 44 102 49 187 44 109 -5 151 -22 213 -82 70 -68 95 -127 95 -222 0
-136 -66 -206 -164 -173 -47 15 -66 52 -66 129 0 78 -10 103 -53 126 l-35 19
-42 -28 c-81 -53 -98 -121 -59 -232 11 -32 23 -71 26 -85 6 -34 61 -95 110
-122 32 -18 54 -21 148 -21 107 0 112 1 165 33 107 64 136 104 156 216 26 145
12 322 -35 428 -21 49 -109 144 -155 169 -125 67 -195 88 -295 88 -68 0 -192
-25 -246 -49 -11 -5 -40 -17 -65 -27 -121 -49 -224 -151 -271 -269 -46 -114
-51 -143 -47 -258 4 -90 11 -130 36 -203 16 -50 34 -100 40 -110 5 -10 24 -50
43 -89 46 -96 133 -209 228 -295 81 -74 92 -82 171 -120 146 -71 206 -85 370
-84 138 0 152 2 314 56 52 17 115 45 211 95 17 9 74 60 127 115 54 55 102 97
107 94 33 -21 -84 -180 -194 -263 -107 -81 -163 -102 -445 -168 -87 -20 -185
-19 -300 4 -202 41 -295 94 -469 264 -106 104 -125 131 -194 272 -75 156 -86
186 -121 337 -20 86 -20 120 3 248 23 125 60 206 134 286 57 62 95 89 209 146
97 49 161 68 263 78 200 20 351 -17 462 -113 98 -86 121 -121 156 -237 34
-114 40 -196 27 -340 -12 -127 -15 -138 -47 -187 -52 -78 -118 -139 -192 -175
-62 -30 -73 -32 -171 -32 -90 0 -111 4 -147 23 -49 26 -118 98 -139 144 -8 18
-18 39 -23 47 -38 69 -45 94 -45 183 0 79 4 97 24 132 50 82 91 107 176 107
109 -1 156 -53 164 -187 5 -73 7 -80 27 -83 48 -7 70 113 37 194 -44 107 -168
169 -287 144 -71 -14 -151 -84 -192 -166 -53 -108 -43 -259 27 -378 69 -117
124 -172 223 -223 44 -23 62 -26 155 -26 99 0 109 2 175 33 120 57 245 202
292 338 11 34 13 77 10 190 -8 227 -36 339 -116 457 -30 45 -157 155 -178 155
-5 0 -14 5 -21 12 -14 14 -64 32 -157 58 -88 25 -249 27 -302 5 -19 -8 -42
-15 -50 -15 -65 0 -357 -183 -444 -278 -161 -175 -200 -421 -109 -682 36 -102
143 -318 187 -375 18 -24 33 -48 33 -53 0 -13 198 -203 260 -248 124 -91 235
-144 372 -178 145 -35 427 -14 578 44 30 12 67 25 81 30 14 4 34 12 45 18 10
6 39 20 64 32 25 12 78 39 119 61 114 61 133 33 30 -43 -59 -44 -67 -48 -189
-108 -151 -74 -203 -95 -270 -110 -19 -4 -47 -12 -62 -18 -40 -17 -253 -25
-328 -13 -116 17 -184 39 -305 98 -121 59 -206 121 -333 245 -127 123 -174
188 -241 323 -34 71 -55 117 -105 230 -48 107 -76 241 -76 350 1 79 30 229 48
247 7 7 12 16 12 21 0 14 92 129 129 162 19 16 41 36 48 44 34 33 269 183 345
219 124 59 137 64 208 83 85 22 152 23 247 3z"/>
<path d="M3184 4707 c-33 -43 -58 -100 -90 -201 -13 -42 -18 -86 -17 -162 1
-101 12 -153 49 -242 8 -18 14 -40 14 -48 0 -9 6 -28 14 -42 8 -15 21 -47 31
-72 30 -80 123 -275 178 -372 18 -31 43 -76 56 -100 13 -24 37 -59 55 -79 17
-20 60 -70 94 -112 60 -73 82 -90 82 -67 0 6 -12 29 -27 53 -36 54 -43 67 -72
119 -13 24 -37 68 -54 98 -65 118 -180 361 -222 470 -9 25 -23 58 -31 73 -8
16 -14 35 -14 44 0 8 -6 27 -14 41 -38 74 -59 223 -53 372 4 103 8 123 36 181
47 99 40 120 -15 46z"/>
<path d="M3014 4109 c-10 -17 6 -247 22 -298 8 -25 14 -54 14 -64 0 -57 184
-350 228 -365 17 -5 16 68 -2 110 -8 18 -29 69 -46 113 -18 44 -45 107 -60
140 -67 145 -79 173 -98 230 -11 33 -23 77 -26 97 -7 40 -20 55 -32 37z"/>
<path d="M2881 3841 c-4 -322 102 -640 298 -892 73 -94 347 -349 375 -349 4 0
22 -11 39 -24 50 -37 159 -95 267 -143 19 -9 47 -22 62 -30 14 -7 33 -13 42
-13 8 0 30 -6 48 -14 73 -31 218 -64 402 -92 120 -18 355 -15 476 6 111 19
213 41 255 56 23 8 50 14 61 14 11 0 29 7 40 15 10 8 26 15 34 15 8 0 28 7 44
15 15 8 32 15 37 15 11 0 160 72 214 103 123 71 272 181 369 275 79 76 226
242 226 255 0 5 19 34 43 65 24 31 47 64 50 72 4 8 16 29 27 45 11 17 24 40
29 52 5 11 15 24 20 28 6 3 11 18 11 33 0 23 -2 24 -14 12 -8 -8 -32 -40 -53
-71 -94 -139 -263 -323 -388 -426 -80 -65 -216 -168 -235 -176 -8 -4 -37 -21
-65 -38 -27 -16 -63 -37 -80 -45 -16 -8 -37 -18 -45 -24 -27 -16 -150 -70
-161 -70 -6 0 -23 -6 -37 -14 -132 -69 -430 -126 -663 -126 -210 0 -457 39
-611 96 -135 50 -143 53 -238 98 -208 98 -423 275 -570 469 -27 36 -50 68 -50
71 0 3 -11 22 -25 42 -51 75 -136 274 -164 384 -6 25 -16 73 -21 106 -5 34
-14 74 -20 88 -5 15 -10 51 -11 79 0 29 -4 70 -8 92 -7 33 -9 23 -10 -54z"/>
<path d="M3054 3505 c-7 -17 8 -59 59 -165 70 -145 266 -384 397 -485 78 -60
190 -135 201 -135 19 0 7 16 -79 104 -86 89 -146 160 -167 196 -41 72 -115
167 -185 235 -81 79 -200 224 -200 244 0 18 -20 23 -26 6z"/>
<path d="M3360 3391 c0 -6 5 -13 10 -16 6 -3 10 -15 10 -25 0 -11 13 -41 28
-67 16 -26 31 -55 35 -63 46 -94 139 -214 256 -329 159 -157 221 -197 431
-276 25 -9 60 -23 78 -31 18 -8 40 -14 48 -14 9 0 37 -7 63 -15 107 -34 183
-45 308 -45 70 0 147 5 170 10 22 5 76 14 120 19 78 10 142 24 198 43 17 5 44
14 60 18 162 46 145 80 -21 45 -53 -11 -154 -16 -375 -17 -322 -3 -324 -3
-464 49 -50 19 -108 41 -160 60 -45 17 -93 41 -145 72 -19 11 -42 24 -50 28
-37 17 -280 205 -328 253 -29 30 -84 94 -122 144 -105 138 -150 185 -150 157z"/>
</g>
</svg>
