<?xml version="1.0" standalone="no"?>
<!DOCTYPE svg PUBLIC "-//W3C//DTD SVG 20010904//EN"
 "http://www.w3.org/TR/2001/REC-SVG-20010904/DTD/svg10.dtd">
<svg version="1.0" xmlns="http://www.w3.org/2000/svg"
 width="300.000000pt" height="300.000000pt" viewBox="0 0 300.000000 300.000000"
 preserveAspectRatio="xMidYMid meet">
<metadata>
Created by potrace 1.10, written by Peter Selinger 2001-2011
</metadata>
<g transform="translate(0.000000,300.000000) scale(0.100000,-0.100000)"
fill="#000000" stroke="none">
<path d="M1400 2605 c-6 -8 -17 -36 -24 -62 -7 -26 -17 -46 -22 -44 -5 2 -24
11 -42 20 -32 15 -35 15 -48 -4 -8 -10 -14 -34 -14 -52 0 -40 -8 -41 -77 -6
-49 25 -54 26 -69 11 -16 -15 -16 -21 0 -83 9 -36 14 -70 11 -76 -4 -5 -26 -9
-49 -9 -55 0 -74 -19 -57 -56 16 -36 7 -44 -49 -44 -65 0 -80 -22 -47 -71 13
-19 27 -34 32 -34 6 0 16 -4 23 -8 6 -5 16 -5 22 -2 5 3 19 0 31 -8 20 -14 20
-16 2 -26 -10 -6 -14 -11 -10 -11 5 0 21 8 35 19 86 60 237 111 353 118 72 5
99 2 160 -17 108 -32 238 -101 301 -159 15 -13 30 -22 33 -19 8 7 -65 66 -131
105 -129 78 -263 116 -377 106 -66 -6 -182 -40 -249 -74 -33 -17 -63 -28 -66
-25 -10 11 163 84 237 100 144 32 240 17 395 -60 113 -56 133 -64 100 -39 -22
17 -12 20 17 4 11 -5 17 -14 13 -20 -7 -13 15 -41 27 -33 5 3 6 10 3 16 -4 6
-1 9 7 6 8 -3 14 -14 14 -25 0 -12 9 -30 19 -42 13 -14 15 -21 6 -21 -10 0
-10 -3 -1 -14 9 -11 9 -15 0 -18 -6 -2 17 -29 51 -61 57 -51 68 -57 121 -63
46 -5 57 -9 49 -19 -24 -29 -63 -24 -110 13 -91 74 -141 125 -129 133 24 15
-196 151 -305 189 -51 17 -68 18 -157 10 -114 -11 -274 -67 -344 -121 -65 -50
-147 -101 -153 -95 -3 3 0 6 7 6 7 0 9 5 5 12 -4 7 -3 8 4 4 7 -4 12 -2 12 4
0 6 -10 8 -27 4 -26 -7 -27 -6 -13 12 14 17 14 18 -2 6 -13 -10 -22 -11 -37
-2 -33 17 -24 30 22 31 70 2 102 12 101 32 -3 35 -4 38 -14 32 -6 -4 -7 -12
-3 -18 3 -7 -4 -3 -16 7 -17 16 -20 16 -16 4 5 -13 -3 -18 -35 -23 -23 -4 -51
-16 -61 -26 -19 -19 -19 -20 7 -55 15 -19 24 -38 20 -41 -4 -4 -28 -19 -53
-33 -26 -14 -48 -31 -51 -37 -2 -7 9 -25 25 -39 17 -17 23 -28 16 -31 -20 -7
-63 -44 -63 -54 0 -12 49 -59 62 -59 5 0 6 5 3 10 -3 6 -2 10 4 10 5 0 13 -4
16 -10 3 -5 1 -10 -4 -10 -6 0 -11 -6 -11 -14 0 -8 -8 -17 -18 -20 -11 -4 -30
-18 -43 -32 l-24 -26 33 -29 c39 -35 40 -48 7 -79 -30 -28 -30 -30 -4 -59 19
-20 20 -26 9 -47 -15 -26 -1 -74 21 -74 8 0 6 7 -4 18 -22 24 -21 39 2 47 22
7 131 114 131 129 0 5 -13 -3 -30 -19 -16 -16 -30 -24 -30 -19 0 17 60 70 60
53 0 -8 14 1 30 21 16 19 30 31 30 26 0 -12 -100 -144 -134 -175 -14 -14 -26
-31 -26 -38 0 -7 13 1 30 19 17 19 30 27 30 19 0 -11 5 -10 23 5 12 10 16 12
10 4 -18 -20 -16 -35 2 -20 8 7 15 8 15 2 0 -5 -7 -15 -15 -22 -11 -9 -15 -9
-15 -1 0 7 -4 10 -9 7 -5 -4 -11 0 -14 6 -2 7 -17 -8 -33 -35 -17 -26 -34 -44
-39 -40 -4 5 -5 0 -2 -10 4 -10 7 -30 7 -43 0 -14 4 -23 9 -20 4 3 6 16 4 30
-3 15 5 38 23 65 32 49 46 47 15 -2 -11 -19 -21 -38 -21 -43 0 -5 12 10 26 34
32 53 43 49 15 -4 -21 -44 -35 -84 -27 -84 2 0 10 17 16 38 7 20 39 72 71 114
58 76 73 102 44 78 -11 -9 -15 -9 -15 -1 0 7 -4 9 -10 6 -5 -3 -10 -2 -10 4 0
5 5 13 10 16 6 3 10 1 10 -6 0 -8 4 -8 15 1 11 9 15 9 15 1 0 -7 5 -9 10 -6
22 14 8 -15 -38 -76 -73 -99 -89 -129 -101 -193 -6 -33 -9 -61 -7 -63 2 -3 9
22 16 54 16 83 20 94 31 88 5 -4 9 0 9 8 0 8 11 26 25 41 14 15 25 29 25 31 0
3 13 26 29 52 16 27 31 55 33 63 2 8 5 17 8 20 3 3 21 34 39 70 43 83 66 116
110 163 40 42 32 51 -11 10 -15 -15 -28 -22 -28 -16 0 6 19 25 43 42 23 17 63
47 89 65 103 76 162 89 253 56 49 -18 75 -37 143 -106 45 -46 82 -89 82 -96 0
-6 -35 26 -77 72 -91 98 -149 130 -233 130 -34 0 -67 -7 -86 -18 -63 -34 -146
-96 -135 -100 9 -3 9 -7 0 -18 -7 -8 -7 -14 -1 -14 5 0 15 7 22 15 7 8 17 15
22 15 6 0 -12 -20 -39 -44 -50 -46 -73 -54 -33 -11 13 14 19 25 13 25 -5 0
-28 -26 -50 -57 -50 -73 -183 -330 -182 -352 1 -17 5 -9 24 49 7 20 12 4 21
-71 7 -58 21 -114 34 -139 12 -23 19 -44 16 -47 -11 -11 -55 103 -65 167 l-10
65 3 -60 c7 -145 94 -263 249 -335 102 -48 146 -56 233 -41 90 16 117 31 197
109 37 37 67 62 67 56 0 -19 -137 -144 -177 -161 -21 -8 -79 -18 -128 -21 -88
-4 -93 -3 -180 34 -122 52 -214 137 -246 227 -12 34 -25 82 -30 107 -7 42 -8
41 -4 -15 5 -99 45 -174 127 -244 72 -61 181 -114 264 -127 51 -8 175 11 217
33 18 9 62 45 100 81 37 36 67 61 67 55 0 -20 -130 -134 -176 -154 -60 -27
-158 -39 -218 -28 -146 27 -310 139 -361 246 -14 31 -28 70 -31 87 -10 58 -15
78 -19 74 -11 -11 19 -137 42 -181 38 -69 147 -157 252 -204 80 -35 93 -38
181 -38 88 0 101 3 160 32 36 17 66 30 68 28 7 -7 -46 -36 -104 -56 -79 -28
-216 -23 -286 9 -27 13 -58 26 -71 31 -12 5 -59 38 -105 75 -45 36 -82 62 -82
58 0 -4 32 -34 71 -66 81 -67 181 -119 259 -135 60 -11 214 -12 184 0 -12 5
-5 7 21 6 22 -1 51 2 64 7 17 6 22 5 16 -4 -4 -7 6 -5 25 5 17 9 34 14 37 11
3 -3 -24 -20 -61 -37 -174 -81 -412 -32 -567 117 -38 37 -69 63 -69 57 0 -23
141 -144 195 -169 162 -71 370 -70 481 3 14 9 27 13 30 10 12 -12 -117 -67
-178 -75 -53 -8 -57 -10 -22 -11 55 -1 129 22 188 59 54 34 75 35 27 0 -126
-89 -306 -101 -505 -33 -83 28 -101 24 -23 -5 114 -43 177 -54 293 -50 62 2
110 7 107 12 -3 4 5 5 18 1 16 -4 19 -3 11 3 -9 6 0 14 33 27 26 9 73 39 106
67 32 27 59 45 59 40 0 -15 -97 -91 -142 -113 -35 -16 -37 -19 -13 -14 47 10
224 135 191 135 -4 0 3 10 14 22 30 33 70 119 76 164 4 34 2 32 -14 -18 -18
-52 -89 -164 -98 -155 -3 2 17 38 42 80 35 58 47 86 47 119 1 24 4 45 7 48 4
3 4 16 0 30 -5 22 -7 19 -15 -20 -5 -27 -10 -38 -12 -27 -4 14 -12 4 -29 -33
-13 -29 -27 -51 -29 -48 -3 3 6 29 20 59 14 30 25 61 24 69 0 10 -3 8 -9 -5
-9 -20 -9 -20 -9 0 -1 12 -11 -1 -26 -34 -14 -30 -28 -52 -30 -49 -3 3 6 29
20 59 14 30 24 70 24 89 l-2 35 -7 -40 c-9 -48 -24 -88 -52 -133 -33 -54 -31
-30 4 39 26 51 33 79 36 139 2 41 -1 86 -6 100 -6 16 -7 -2 -4 -58 3 -63 1
-93 -13 -128 -12 -31 -20 -42 -25 -33 -5 7 -1 23 8 38 23 34 21 169 -2 230 -9
24 -14 46 -11 49 2 3 8 -4 12 -14 4 -10 13 -24 21 -30 8 -6 20 -33 27 -60 8
-27 14 -39 14 -27 1 31 -15 71 -56 132 -20 30 -50 86 -66 125 -16 39 -33 75
-38 81 -15 15 -10 28 6 15 8 -7 25 -39 37 -72 12 -33 39 -87 59 -119 70 -108
73 -116 73 -219 0 -80 1 -88 8 -50 5 25 7 59 5 77 -1 17 1 29 6 26 5 -3 7 -38
5 -77 -2 -39 -3 -63 -1 -54 3 10 9 18 15 18 17 0 -1 104 -27 158 -13 27 -36
67 -50 88 -15 21 -49 84 -75 139 -38 79 -62 113 -112 161 -35 34 -79 70 -98
80 -51 26 -136 24 -183 -4 -43 -25 -51 -27 -41 -11 13 21 89 49 134 49 66 0
136 -37 205 -109 33 -34 64 -70 70 -79 5 -10 17 -17 25 -17 18 1 40 -14 40
-27 0 -5 -6 -6 -12 -1 -48 29 -40 -5 27 -117 99 -168 115 -205 116 -272 1 -56
2 -59 10 -28 16 69 8 91 -125 325 -26 47 -46 88 -44 91 6 6 97 -148 150 -255
40 -79 43 -92 49 -195 l7 -111 -2 115 c-1 112 -2 117 -39 190 -21 41 -61 112
-89 158 -28 46 -48 85 -46 88 6 5 91 -132 142 -229 20 -38 36 -65 36 -60 1 16
23 -31 36 -76 l14 -46 -6 40 c-6 42 -10 51 -118 234 -36 63 -65 116 -63 118 6
5 87 -121 87 -136 0 -7 4 -10 9 -7 5 3 50 -44 101 -105 50 -61 94 -108 98
-105 3 4 0 12 -6 18 -18 18 -15 37 13 70 23 27 23 31 10 52 -13 19 -13 25 1
45 15 20 15 24 -1 41 -16 17 -15 20 1 45 16 25 16 27 -11 55 -16 17 -23 30
-17 30 7 0 18 11 24 25 9 20 8 28 -5 43 -12 13 -15 28 -11 54 4 20 2 38 -4 42
-7 4 -7 16 1 35 13 36 0 56 -44 65 l-31 6 26 35 c37 47 31 69 -17 73 -21 2
-41 10 -44 18 -3 7 -10 11 -17 7 -6 -3 -7 -2 -3 3 5 5 14 9 20 9 7 0 20 17 30
38 21 46 11 67 -34 67 -33 0 -33 1 -18 53 12 43 0 67 -32 67 -13 0 -19 9 -21
38 -3 32 -7 37 -30 40 -26 3 -28 7 -28 46 0 51 -18 71 -55 62 -20 -5 -25 -3
-25 12 0 24 -30 50 -52 47 -12 -2 -18 4 -19 16 -3 38 -4 42 -21 53 -13 8 -23
8 -38 -2 -27 -16 -40 -15 -40 4 0 9 -8 23 -17 30 -15 11 -21 9 -40 -8 -20 -19
-23 -19 -44 -5 -17 12 -27 13 -42 6 -16 -9 -24 -6 -48 20 -31 35 -41 37 -59
16z m35 -26 c4 -12 16 -37 27 -56 16 -27 23 -31 34 -22 8 6 14 20 14 30 0 25
19 34 26 12 28 -88 39 -91 65 -17 18 53 19 51 34 -37 5 -35 5 -36 -27 -32 -30
3 -31 2 -10 -7 40 -17 69 -2 93 47 12 24 24 41 27 38 8 -8 10 -45 2 -45 -4 0
-6 -12 -4 -26 2 -20 -1 -24 -14 -20 -15 5 -15 4 1 -8 19 -15 23 -36 6 -36 -5
0 -7 5 -3 12 4 7 3 8 -4 4 -6 -4 -40 1 -74 10 -35 8 -97 16 -138 16 -41 1 -63
3 -47 5 15 2 27 9 27 15 0 6 -12 8 -30 4 -22 -4 -29 -2 -24 6 4 7 3 8 -5 4 -6
-4 -9 -12 -6 -17 4 -5 0 -9 -7 -10 -40 -2 37 -18 92 -18 36 -1 99 -11 140 -22
107 -30 110 -29 132 14 23 44 44 50 33 10 -4 -16 -8 -34 -8 -40 0 -7 -9 -16
-21 -19 -18 -6 -18 -8 8 -21 51 -27 21 -23 -50 6 -38 16 -101 37 -141 47 -64
16 -82 17 -169 6 -53 -7 -104 -17 -113 -22 -22 -13 -1 -13 52 1 29 7 63 7 107
0 l65 -10 -72 2 c-43 2 -67 -1 -60 -6 8 -6 3 -7 -11 -4 -13 3 -53 -3 -90 -13
-42 -12 -71 -15 -76 -9 -6 5 -15 9 -20 9 -6 0 -5 -4 3 -9 11 -7 9 -10 -8 -16
-11 -3 -21 -11 -21 -17 0 -6 8 -7 18 -3 54 21 162 45 225 50 39 3 92 8 117 11
25 3 41 2 37 -3 -5 -4 -39 -11 -75 -14 l-67 -6 60 -1 c35 -1 71 5 85 13 l25
13 -28 7 c-15 4 -51 11 -80 15 l-52 8 43 1 c37 1 124 -23 286 -79 34 -11 57 4
82 52 8 16 19 28 24 28 12 0 8 -43 -5 -52 -6 -5 -6 -8 2 -8 6 0 10 -8 8 -17
-1 -12 -9 -17 -21 -15 -18 3 -18 3 1 -11 19 -14 18 -15 -17 -12 -20 2 -49 10
-65 18 -15 8 -44 17 -63 21 -26 4 -22 1 16 -12 28 -10 71 -30 97 -45 25 -15
50 -27 55 -27 5 0 21 12 36 27 30 30 44 26 25 -9 -7 -12 -12 -29 -11 -35 3
-11 -17 -18 -41 -14 -4 1 -3 -9 4 -21 11 -22 11 -22 -7 -6 -11 9 -47 29 -79
43 -33 14 -81 37 -106 50 -79 42 -163 56 -270 46 -52 -5 -107 -14 -124 -19
-16 -6 -63 -20 -102 -32 -40 -13 -73 -27 -73 -32 0 -6 8 -7 18 -3 115 47 204
68 304 73 127 5 150 -1 330 -92 118 -59 128 -62 156 -50 16 6 33 17 36 23 9
13 26 15 26 2 0 -5 -7 -16 -15 -25 -9 -8 -14 -26 -11 -39 3 -18 0 -24 -12 -23
-10 0 -16 -4 -15 -10 1 -6 -36 9 -83 34 -46 25 -82 47 -80 50 3 2 40 -14 83
-37 43 -22 68 -32 55 -21 -39 32 -268 148 -328 166 -99 29 -213 16 -381 -41
-132 -45 -142 -47 -158 -32 -19 20 -6 23 14 5 11 -11 12 -10 6 0 -4 7 -18 17
-31 22 -33 13 -31 34 2 26 72 -18 82 -18 92 0 15 28 15 36 0 46 -10 8 -10 9 2
5 10 -3 16 2 16 14 0 12 -4 15 -12 8 -8 -7 -11 -2 -11 16 0 21 2 23 13 14 8
-7 17 -9 20 -6 3 3 -3 12 -15 19 -12 7 -21 18 -21 25 0 7 -4 13 -10 13 -5 0
-10 7 -10 15 0 17 16 20 25 5 4 -6 32 -26 63 -46 52 -34 56 -35 69 -18 7 10
13 26 13 35 0 10 4 20 9 24 6 3 4 17 -4 32 -22 43 -8 40 39 -6 52 -51 56 -48
76 62 13 69 24 83 35 46z m110 -289 c67 -10 245 -83 232 -96 -3 -3 -37 11 -76
30 -81 41 -108 48 -41 10 25 -14 36 -22 25 -18 -11 4 -42 15 -70 25 -66 24
-196 23 -292 -2 -116 -29 -284 -101 -270 -115 2 -2 33 10 68 27 106 53 196 78
315 90 126 12 136 10 264 -49 41 -19 69 -36 62 -39 -13 -5 -7 -23 9 -23 6 0 7
5 4 10 -3 6 -1 10 6 10 7 0 4 7 -7 15 -10 8 -16 15 -12 15 10 0 159 -88 179
-106 13 -12 22 -12 65 1 27 8 50 15 51 15 1 0 -4 -14 -11 -31 -15 -36 -40 -54
-59 -43 -9 6 -9 4 1 -8 17 -22 0 -31 -24 -13 -24 18 -38 19 -28 3 5 -8 -2 -6
-16 3 -26 17 -33 39 -17 50 5 4 -18 23 -52 43 -67 39 -76 42 -65 25 4 -7 3
-10 -2 -7 -191 92 -217 102 -314 113 -80 10 -221 -26 -343 -86 -76 -37 -105
-47 -128 -42 -16 3 -32 10 -35 15 -3 5 5 6 19 3 14 -4 28 -2 31 3 4 6 -3 8
-16 4 -13 -3 -19 -1 -15 5 5 7 0 9 -14 6 -13 -4 -27 2 -41 16 -11 12 -18 24
-17 26 2 1 40 -1 84 -5 62 -6 86 -5 105 6 l25 14 -27 -6 c-16 -3 -28 -2 -28 3
0 5 8 9 18 10 10 1 65 20 122 43 152 61 204 68 335 50z m55 -165 c19 -7 34
-18 32 -25 -1 -6 3 -10 10 -7 7 2 28 -6 46 -20 17 -13 32 -21 32 -18 0 3 14
-2 31 -11 44 -22 131 -86 125 -91 -2 -3 -33 16 -67 41 -35 26 -70 44 -77 41
-8 -3 -10 0 -6 6 4 8 0 8 -14 0 -17 -9 -32 -7 -74 11 -43 18 -74 22 -164 22
l-111 1 -114 -59 c-63 -32 -130 -70 -149 -85 -34 -27 -170 -119 -200 -136 -11
-6 -11 -4 2 11 16 19 16 19 -32 19 -27 0 -57 5 -66 12 -10 7 -16 13 -13 14 39
6 54 12 72 24 12 8 27 15 34 15 13 0 112 63 188 120 50 38 194 103 263 119 56
14 213 11 252 -4z m26 -84 c30 -11 70 -18 89 -16 36 5 65 -15 235 -164 119
-104 134 -120 90 -92 l-35 23 34 -32 c28 -27 38 -31 67 -25 43 8 45 -9 4 -30
-17 -9 -28 -20 -25 -25 13 -21 -11 -8 -42 22 -18 17 -35 29 -38 27 -9 -10 64
-72 88 -74 67 -8 82 -33 33 -56 -19 -9 -20 -9 -3 4 16 14 16 15 -7 15 -28 0
-146 104 -126 110 7 3 -17 34 -51 70 -80 83 -49 62 54 -36 43 -41 80 -72 83
-69 3 3 -18 26 -46 53 -28 26 -46 50 -41 54 6 3 -7 19 -27 34 l-37 29 29 -31
c17 -18 26 -32 20 -32 -13 1 -120 100 -107 100 5 0 18 -9 28 -20 10 -11 23
-20 29 -20 6 0 -7 16 -29 35 -41 35 -67 47 -45 20 7 -8 8 -15 2 -15 -5 0 -15
7 -22 15 -10 12 -10 15 0 15 10 0 10 3 0 15 -7 8 -17 15 -22 15 -6 0 -5 -7 2
-15 7 -8 8 -15 2 -15 -5 0 -15 7 -22 15 -10 12 -10 15 1 15 7 0 3 10 -11 25
-13 14 -30 23 -38 20 -7 -2 -11 -1 -8 3 2 4 -4 8 -14 8 -10 0 -16 -4 -14 -8 7
-11 6 -11 -76 18 -54 19 -97 26 -160 27 l-86 2 -124 -62 c-114 -56 -208 -118
-196 -130 2 -2 26 12 53 33 26 20 95 60 153 87 93 45 114 51 186 55 92 5 162
-11 259 -60 64 -32 88 -48 81 -55 -2 -2 -27 10 -56 27 -29 17 -87 43 -129 57
-63 21 -89 24 -151 21 -63 -4 -168 -33 -158 -44 2 -1 35 6 73 17 38 10 89 19
112 19 59 0 186 -42 262 -87 65 -38 236 -191 226 -201 -3 -3 -36 24 -73 61
-37 37 -71 67 -76 67 -5 0 -3 -7 4 -15 10 -12 10 -15 -1 -15 -7 0 17 -31 54
-68 37 -37 65 -70 63 -73 -3 -3 31 -41 76 -85 45 -44 69 -63 54 -42 -15 20
-48 53 -72 73 -25 21 -42 40 -39 43 3 3 36 -24 73 -61 45 -44 78 -69 100 -73
36 -7 40 -15 15 -35 -13 -11 -15 -11 -9 -1 7 11 4 11 -13 1 -19 -12 -30 -3
-153 118 -73 72 -144 141 -158 152 -15 12 -19 20 -11 21 11 0 11 3 1 15 -10
12 -10 15 0 15 10 0 10 3 0 15 -10 12 -10 15 0 15 42 0 -104 90 -200 123 -82
29 -187 26 -278 -7 -40 -15 -77 -24 -82 -21 -11 7 -105 -43 -97 -52 3 -2 24 8
46 23 23 15 44 25 46 22 5 -5 -96 -78 -120 -87 -5 -2 -1 6 9 18 30 33 8 25
-41 -15 -27 -22 -40 -39 -34 -43 7 -5 0 -18 -18 -35 -26 -25 -60 -29 -46 -5
14 22 -15 6 -73 -42 -61 -49 -64 -50 -87 -35 -31 20 -56 21 -29 1 10 -8 14
-15 8 -15 -14 0 -34 21 -34 36 0 7 18 15 39 19 36 6 196 104 276 168 31 25
246 140 281 150 38 11 194 -3 250 -22z m136 -60 c10 -8 16 -17 14 -19 -5 -4
-66 27 -66 34 0 9 34 -1 52 -15z m-150 -11 c66 -20 195 -96 184 -107 -3 -4
-12 -1 -18 5 -7 7 -17 12 -23 12 -5 -1 4 -12 20 -25 17 -14 24 -25 16 -25 -11
0 -11 -3 -1 -15 7 -8 8 -15 2 -15 -16 0 -35 27 -21 32 18 6 -97 77 -167 104
-42 15 -83 24 -117 23 l-52 -2 67 -7 c62 -8 152 -43 188 -75 8 -7 25 -16 38
-20 13 -4 21 -9 18 -13 -4 -3 4 -16 16 -29 36 -39 9 -26 -48 23 -30 26 -57 45
-59 42 -2 -2 34 -36 80 -75 47 -40 81 -74 77 -77 -5 -3 -39 22 -76 56 -37 33
-69 59 -71 57 -2 -3 21 -30 51 -61 30 -31 54 -54 54 -50 0 3 11 -5 25 -18 14
-13 25 -28 25 -34 -1 -6 -10 0 -20 13 -31 37 -23 14 12 -35 17 -24 34 -42 36
-39 3 3 -3 14 -13 25 -10 11 -16 23 -13 26 3 3 17 -10 30 -28 71 -98 202 -267
228 -295 55 -60 42 -34 -16 32 -65 75 -69 99 -5 29 61 -65 60 -50 -1 19 -32
37 -47 62 -41 68 6 6 16 2 28 -11 10 -11 14 -20 10 -20 -4 0 0 -9 10 -20 10
-11 22 -17 26 -14 5 3 9 -3 9 -13 0 -24 19 -43 41 -43 26 0 33 -19 10 -28 -11
-4 -20 -9 -20 -12 0 -13 -14 -40 -21 -40 -9 0 -182 215 -224 278 -18 27 -32
39 -36 32 -4 -6 -28 19 -58 63 -124 180 -269 258 -392 213 -70 -25 -260 -171
-260 -199 0 -5 7 -4 15 3 24 20 18 5 -26 -67 -59 -97 -100 -155 -105 -150 -3
3 22 47 56 98 55 86 67 109 56 109 -3 0 -29 -42 -60 -93 -52 -89 -86 -132 -86
-109 0 6 5 14 10 17 6 3 36 49 67 102 67 114 108 162 183 213 30 20 54 42 53
48 -2 7 5 12 15 12 10 0 27 7 38 16 19 15 19 16 -1 9 -43 -15 -58 -15 -27 -1
24 11 60 15 125 13 78 -2 100 -6 145 -30 61 -31 69 -33 52 -12 -20 24 -117 55
-178 56 -41 1 -50 3 -32 8 35 10 96 2 154 -20 64 -24 73 -16 13 11 -100 45
-190 33 -341 -42 -32 -16 -60 -27 -63 -24 -7 7 89 54 167 83 56 20 60 23 25
18 -22 -2 -75 -23 -118 -46 -94 -49 -115 -46 -25 3 83 46 121 58 220 68 l83 9
-92 -4 c-77 -3 -103 -9 -155 -34 -85 -40 -160 -89 -154 -100 6 -10 -51 -67
-59 -59 -3 3 9 18 27 34 18 15 25 24 14 21 -34 -13 0 18 69 63 134 87 273 111
407 70z m361 2 c10 -10 14 -22 10 -27 -5 -4 24 -5 62 -2 l70 7 -35 -28 c-19
-14 -41 -27 -49 -27 -20 0 -73 48 -61 55 5 3 -1 12 -13 19 -20 13 -21 13 -8
-2 11 -14 11 -17 0 -17 -8 -1 4 -16 25 -34 22 -19 44 -33 50 -32 6 2 8 1 4 -1
-4 -2 -4 -12 0 -21 4 -11 -8 -6 -33 14 -54 43 -81 74 -65 74 10 0 10 3 1 14
-9 11 -9 15 1 19 21 9 24 8 41 -11z m-101 -99 c20 -24 -7 -12 -42 18 l-35 31
33 -19 c19 -10 38 -24 44 -30z m-582 -13 c-12 -8 -12 -10 -1 -10 8 0 -13 -17
-45 -38 -73 -47 -128 -111 -179 -205 -53 -97 -165 -249 -165 -223 0 3 26 40
59 83 59 79 131 200 112 188 -6 -3 -11 -2 -11 4 0 5 6 14 13 18 7 4 35 33 62
63 27 30 43 49 35 43 -21 -19 -34 -16 -19 5 13 15 12 16 -4 3 -9 -8 -15 -16
-13 -19 3 -2 -15 -29 -41 -59 -25 -29 -48 -51 -51 -48 -3 3 16 28 43 55 27 28
45 50 39 50 -12 0 -188 -189 -182 -195 2 -3 17 9 33 25 30 31 45 38 45 19 0
-5 -4 -8 -9 -4 -5 3 -13 0 -17 -6 -4 -8 -3 -9 4 -5 21 13 13 -9 -19 -52 -17
-24 -34 -40 -37 -38 -3 3 3 15 13 26 10 11 16 22 14 24 -5 5 -139 -150 -139
-160 0 -4 11 3 25 16 30 29 33 15 4 -16 l-22 -23 -28 29 c-32 32 -35 40 -16
40 7 0 28 16 47 35 18 19 36 33 39 30 2 -3 -6 -16 -19 -30 -13 -14 -21 -27
-18 -30 6 -6 98 99 98 111 0 4 -13 -5 -30 -21 -16 -16 -30 -24 -30 -17 0 6 67
79 148 162 81 82 144 150 139 150 -4 0 -5 5 -2 10 3 6 11 10 16 10 6 0 8 -4 5
-9 -12 -19 27 -20 62 -1 38 20 69 27 42 10z m-190 -55 c-13 -14 -19 -25 -15
-25 5 0 -20 -30 -56 -67 -36 -38 -94 -101 -128 -141 -58 -66 -65 -71 -77 -55
-17 23 -17 30 0 30 8 0 12 -6 8 -15 -6 -18 12 -1 78 73 38 43 39 45 7 16 -20
-19 -37 -30 -37 -24 0 14 218 233 232 233 6 0 1 -11 -12 -25z m880 -95 c68
-65 122 -121 119 -124 -2 -3 -63 51 -134 119 -72 68 -125 124 -120 124 6 0 66
-54 135 -119z m-425 91 c22 -10 60 -40 85 -67 25 -27 47 -47 50 -44 3 3 6 -6
7 -20 1 -30 72 -202 86 -211 5 -4 7 -11 3 -17 -3 -5 0 -27 8 -48 7 -22 16 -70
20 -109 5 -60 3 -76 -14 -108 -16 -29 -18 -42 -10 -57 8 -14 8 -26 0 -40 -13
-24 -25 -27 -16 -4 3 9 -22 -13 -56 -48 -35 -36 -75 -73 -90 -82 -39 -26 -125
-46 -194 -46 -64 0 -158 26 -148 41 3 5 -2 9 -11 9 -9 0 -30 7 -47 16 -38 19
-128 102 -128 118 0 5 24 -13 53 -41 144 -142 367 -141 535 2 24 21 42 31 42
23 0 -7 10 -1 21 15 11 15 25 25 30 22 5 -4 6 1 3 9 -3 9 -10 13 -15 10 -13
-8 -11 -1 16 58 14 29 24 62 24 73 -1 16 -2 15 -8 -5 -17 -55 -65 -134 -105
-175 -24 -23 -78 -60 -121 -81 -74 -37 -84 -39 -169 -39 -74 0 -101 5 -143 23
-48 22 -108 72 -86 72 5 0 18 -9 27 -19 10 -11 41 -29 69 -42 96 -42 236 -23
348 47 77 48 170 182 168 244 0 20 -3 16 -13 -15 -17 -52 -59 -122 -64 -106
-3 9 -10 7 -23 -5 -19 -17 -20 -17 -13 2 4 10 -9 1 -27 -21 -19 -22 -33 -43
-32 -47 2 -4 -3 -5 -11 -2 -14 5 -29 -10 -32 -33 -1 -6 4 -9 12 -6 8 3 12 9 9
13 -3 5 0 12 6 16 8 4 9 3 5 -4 -15 -24 6 -11 54 34 61 57 67 45 8 -13 -68
-66 -200 -117 -300 -115 -70 1 -160 52 -214 121 -57 72 -79 153 -71 258 4 57
2 71 -5 53 -29 -76 7 -262 62 -315 16 -16 30 -33 30 -39 0 -20 -63 50 -81 91
-23 51 -43 191 -34 239 3 19 14 43 23 52 10 10 26 40 37 67 21 57 75 148 82
141 3 -3 -8 -27 -24 -53 -27 -43 -53 -110 -66 -170 -3 -12 -1 -57 4 -99 19
-173 125 -292 278 -314 59 -9 159 11 173 34 11 17 3 17 -33 -1 -23 -12 -57
-18 -104 -18 -122 1 -208 55 -268 170 -30 57 -32 66 -32 171 0 109 1 112 40
189 36 72 123 175 148 175 5 0 3 -7 -4 -16 -9 -12 -3 -10 21 5 49 29 63 26 18
-4 -20 -14 -43 -23 -50 -20 -8 3 -26 -7 -40 -22 -40 -42 -109 -171 -114 -212
-4 -33 -3 -32 9 9 7 25 18 44 25 43 7 -2 11 0 10 5 -5 15 52 119 82 147 39 37
38 28 -1 -21 -35 -44 -69 -107 -68 -126 0 -7 4 -3 9 10 13 31 67 110 98 145
44 46 46 30 3 -19 -42 -48 -101 -156 -101 -183 1 -9 19 20 41 64 40 82 93 146
141 171 36 19 99 18 124 -2 19 -15 19 -16 -1 -8 -11 4 -36 9 -55 11 -66 8
-163 -83 -198 -186 -15 -44 -15 -153 0 -202 24 -82 108 -149 185 -149 38 0 96
28 121 59 64 79 72 101 72 208 0 131 -22 195 -86 252 -52 46 -85 54 -139 36
-50 -18 -60 -10 -12 10 46 19 63 19 112 -4 54 -24 98 -77 125 -148 19 -50 21
-71 17 -154 -6 -108 -24 -155 -84 -215 -82 -83 -176 -83 -261 -1 -45 43 -64
81 -72 147 l-7 55 -1 -50 c-2 -93 63 -182 160 -219 61 -24 114 -9 175 47 65
59 91 119 103 228 8 84 7 96 -15 157 -25 70 -26 93 -2 45 47 -90 60 -234 32
-331 -19 -64 -86 -148 -139 -176 -22 -11 -65 -22 -95 -24 -52 -4 -60 -1 -118
38 -119 79 -149 140 -141 287 3 48 1 78 -3 67 -14 -35 -10 -178 7 -227 17 -50
88 -122 153 -157 20 -11 29 -19 20 -20 -20 0 -117 64 -142 94 -32 39 -50 80
-57 136 l-7 55 -2 -46 c0 -26 6 -63 15 -84 20 -49 12 -56 -10 -8 -9 21 -21 72
-26 113 l-9 75 4 -78 c5 -86 40 -170 92 -219 80 -76 213 -99 308 -54 50 24
144 110 133 122 -4 3 -14 -6 -23 -20 -10 -14 -21 -26 -26 -26 -5 0 7 21 26 46
90 118 92 311 4 463 -19 33 -34 49 -38 42 -5 -8 -13 -5 -27 10 -47 53 -120 69
-189 44 -16 -6 -18 -5 -8 5 6 7 34 15 61 18 52 5 97 -12 140 -51 12 -11 22
-16 22 -10 0 6 -21 25 -47 42 -61 40 -128 42 -192 6 -51 -29 -58 -31 -40 -8
13 15 12 15 -10 4 -15 -8 -21 -9 -17 -2 4 6 3 11 -3 11 -5 0 -13 -4 -16 -10
-3 -5 -12 -10 -18 -10 -12 1 14 24 47 42 13 7 16 7 12 -1 -4 -6 -3 -11 3 -11
5 0 13 5 17 11 23 39 143 50 209 20z m321 -93 c44 -46 82 -82 86 -81 3 1 45
-38 92 -87 47 -50 90 -90 96 -90 15 0 12 -16 -5 -30 -10 -9 -15 -9 -15 -1 0 6
-6 10 -12 9 -7 -2 -12 5 -10 14 2 11 -26 46 -70 91 -40 40 -53 50 -28 23 86
-96 92 -105 85 -116 -5 -8 -10 -8 -21 1 -7 6 -11 16 -8 21 4 6 -20 38 -53 72
-32 33 -85 91 -117 129 -56 65 -97 85 -55 26 11 -16 25 -27 30 -24 5 4 6 0 3
-8 -3 -8 -1 -18 5 -22 7 -4 8 0 4 11 -4 12 -3 15 6 10 6 -4 10 -15 7 -24 -3
-10 7 -32 24 -52 16 -19 30 -30 30 -24 0 6 -7 17 -16 24 -8 8 -20 23 -26 34
l-11 21 22 -20 c31 -27 95 -115 88 -121 -3 -3 -15 9 -27 26 -12 17 -24 29 -27
26 -3 -2 10 -23 28 -45 18 -23 30 -43 27 -46 -3 -3 -49 54 -102 126 -70 94
-95 134 -87 142 8 8 3 19 -16 39 -15 15 -22 28 -16 28 6 0 46 -37 89 -82z
m-881 52 c4 -6 -30 -49 -75 -96 -44 -48 -79 -89 -76 -92 3 -2 14 1 23 9 16 12
15 11 -1 -8 -14 -17 -23 -20 -36 -13 -11 6 -21 5 -30 -3 -10 -9 -11 -9 -6 1 4
7 1 12 -8 12 -29 0 -17 17 26 36 49 22 101 64 149 119 28 32 21 29 -33 -19
-38 -32 -68 -53 -68 -47 0 6 10 19 22 29 12 9 37 32 57 49 39 35 47 38 56 23z
m537 -96 c30 -30 39 -23 11 8 -9 10 -11 18 -6 18 18 0 65 -70 79 -118 17 -55
18 -215 3 -245 -22 -41 -81 -107 -109 -122 -37 -19 -81 -19 -127 0 -52 22 -72
42 -99 100 -46 98 -24 235 53 325 65 75 138 88 195 34z m-496 -20 c-5 -14 -4
-15 9 -4 21 17 19 10 -11 -44 -29 -51 -45 -57 -19 -7 9 18 13 36 10 41 -3 6
-3 15 0 20 10 16 18 11 11 -6z m-77 -241 c-11 -15 -10 -15 9 1 27 23 30 6 3
-18 -17 -16 -19 -16 -25 0 -3 9 -1 23 5 31 17 20 24 7 8 -14z m355 -312 c75
-37 197 -23 263 29 14 11 28 18 31 15 9 -9 -44 -45 -98 -66 -68 -26 -136 -22
-203 11 -50 25 -117 83 -117 102 0 6 18 -8 41 -30 22 -23 59 -50 83 -61z m542
-37 c-29 -51 -31 -58 -16 -49 29 18 3 -24 -47 -77 -71 -74 -108 -101 -142
-103 -14 -1 -39 -6 -56 -10 -19 -4 -10 3 23 19 52 25 182 139 182 160 0 5 -23
-16 -51 -47 -28 -31 -56 -57 -62 -57 -6 0 7 19 29 43 23 23 54 59 69 80 15 21
30 35 33 32 3 -3 0 -11 -6 -17 -16 -16 -15 -33 1 -20 7 6 24 34 37 63 14 28
26 46 28 40 2 -6 -8 -32 -22 -57z m50 -6 l-6 -33 14 35 c8 19 15 28 15 20 1
-20 -34 -95 -70 -152 -17 -27 -27 -53 -23 -59 4 -7 3 -9 -3 -6 -6 4 -16 0 -24
-9 -7 -8 -22 -20 -33 -26 -12 -6 -4 7 19 31 27 28 36 44 29 51 -7 7 -25 -2
-56 -30 -72 -63 -65 -47 15 33 45 44 82 92 97 125 14 28 26 52 28 52 2 0 1
-15 -2 -32z m-126 -199 c-25 -21 -49 -39 -55 -39 -5 0 13 20 40 44 28 24 52
42 55 39 3 -2 -15 -22 -40 -44z"/>
<path d="M1509 2481 c11 -7 9 -10 -10 -14 -20 -4 -21 -5 -3 -6 11 0 29 6 40
14 18 14 18 14 -11 15 -21 0 -26 -3 -16 -9z"/>
<path d="M1570 2350 c-6 -4 4 -10 23 -13 19 -3 89 -30 156 -60 67 -31 118 -50
112 -43 -27 32 -270 129 -291 116z"/>
<path d="M1280 2328 c-41 -12 -88 -21 -103 -21 -20 0 -24 -2 -15 -8 11 -7 10
-9 -1 -9 -8 0 -12 -2 -10 -4 2 -3 45 7 94 21 50 14 110 29 135 33 42 7 42 8
10 8 -19 1 -69 -9 -110 -20z"/>
<path d="M1385 2280 c-53 -7 -261 -78 -253 -86 2 -1 55 15 118 37 77 26 133
39 168 39 33 0 51 4 47 10 -3 6 -9 9 -13 9 -4 -1 -34 -5 -67 -9z"/>
<path d="M1538 2229 c24 -4 80 -24 125 -43 44 -20 83 -34 85 -31 12 12 -186
86 -226 84 -19 -1 -15 -4 16 -10z"/>
<path d="M1800 2139 c8 -5 41 -26 73 -46 43 -26 55 -38 45 -44 -7 -5 -8 -9 -3
-9 6 0 4 -4 -3 -9 -11 -7 -10 -9 3 -14 9 -4 13 -3 10 3 -8 13 1 13 28 -1 19
-9 19 -8 -3 11 -21 19 -22 21 -5 16 30 -9 -15 27 -87 70 -53 30 -96 48 -58 23z"/>
<path d="M1360 2116 c-62 -14 -243 -91 -260 -111 -6 -7 -47 -37 -90 -65 -44
-29 -80 -57 -80 -62 0 -12 28 5 129 80 110 81 250 140 360 153 65 8 104 8 142
0 61 -13 78 -7 22 8 -49 14 -153 13 -223 -3z"/>
<path d="M1325 2081 c-88 -32 -208 -98 -299 -165 -69 -51 -98 -66 -125 -67
l-36 -1 34 -8 c31 -7 42 -3 95 33 34 22 77 53 96 68 53 41 249 138 300 148 35
7 39 9 15 10 -16 0 -52 -8 -80 -18z"/>
<path d="M1531 2090 c37 -5 88 -18 114 -29 54 -24 55 -24 55 -12 0 17 -122 51
-179 50 l-56 -2 66 -7z"/>
<path d="M981 1815 c-59 -41 -127 -99 -91 -79 34 19 170 115 170 119 0 11 -18
2 -79 -40z"/>
<path d="M1860 1754 c25 -25 54 -50 65 -56 11 -6 -5 15 -35 46 -30 31 -59 56
-64 56 -6 0 10 -21 34 -46z"/>
<path d="M1629 1940 c40 -16 82 -37 92 -46 11 -10 22 -15 25 -11 12 12 -140
87 -176 86 -8 0 18 -13 59 -29z"/>
<path d="M1232 1830 c-37 -23 -46 -25 -36 -9 4 7 -2 7 -16 -1 -21 -11 -22 -13
-6 -22 12 -7 22 -6 34 5 9 8 31 22 47 30 17 9 26 16 20 17 -5 0 -25 -9 -43
-20z"/>
<path d="M1005 1720 c-32 -33 -57 -62 -54 -64 3 -3 34 24 69 59 36 36 60 65
54 65 -5 0 -36 -27 -69 -60z"/>
<path d="M1409 1801 c-35 -11 -72 -32 -66 -38 3 -2 18 2 34 10 78 39 152 27
220 -36 48 -44 107 -149 118 -210 4 -20 10 -37 14 -37 24 0 -23 -259 -49 -275
-6 -3 -10 -11 -10 -16 0 -6 5 -7 12 -3 8 5 9 2 4 -11 -5 -15 -4 -16 8 -6 11 9
15 9 18 -1 5 -14 48 63 48 84 -1 7 -7 0 -15 -17 l-14 -30 4 30 5 30 -15 -32
c-8 -17 -19 -34 -25 -38 -13 -8 -13 8 -1 21 16 15 41 125 42 184 l1 55 10 -37
c6 -21 14 -38 19 -38 12 0 12 3 -5 47 -80 213 -102 256 -153 305 -62 60 -132
80 -204 59z"/>
<path d="M1679 1400 c-7 -88 -38 -156 -96 -212 -93 -90 -187 -90 -287 2 -52
48 -74 98 -86 196 l-9 69 4 -76 c5 -121 37 -176 139 -242 39 -25 60 -31 102
-31 131 0 251 157 242 316 -3 51 -3 50 -9 -22z"/>
<path d="M1095 1304 c4 -83 21 -129 74 -199 49 -65 139 -116 202 -114 l44 1
-47 8 c-140 24 -248 146 -268 307 l-9 68 4 -71z"/>
<path d="M1686 1024 c-87 -76 -236 -119 -332 -95 -26 7 -48 10 -51 7 -2 -2 21
-10 52 -17 115 -26 258 17 341 102 47 48 42 50 -10 3z"/>
<path d="M1375 1649 c-145 -128 -131 -382 24 -434 30 -9 60 -14 73 -9 70 21
139 111 137 178 l-2 41 -6 -43 c-10 -56 -57 -122 -104 -146 -37 -18 -39 -18
-94 0 -51 17 -59 24 -87 73 -25 46 -30 65 -30 121 1 56 7 77 34 129 42 79 79
111 129 111 47 0 84 -27 111 -81 16 -29 20 -58 20 -127 0 -83 -2 -92 -29 -129
-37 -52 -68 -73 -104 -73 -98 0 -159 118 -124 241 9 30 23 63 32 74 17 20 17
20 9 0 -37 -102 -37 -105 -23 -148 17 -54 31 -75 66 -98 30 -20 84 -25 112 -9
29 15 51 83 49 153 -1 50 -2 53 -5 17 -6 -82 -14 -109 -39 -140 -29 -34 -68
-40 -100 -14 -19 15 -19 16 1 9 49 -17 55 -16 85 13 29 29 30 34 30 114 0 54
-5 93 -15 112 -18 34 -19 39 -4 30 7 -4 10 -1 7 6 -2 8 -10 16 -18 18 -8 3
-10 0 -5 -8 6 -10 3 -11 -11 -6 -10 4 -29 9 -42 11 -12 1 -26 6 -30 10 -4 4
12 5 36 2 24 -3 40 -1 36 4 -11 19 -72 9 -103 -16 -43 -37 -91 -138 -91 -193
0 -101 52 -184 123 -197 53 -10 92 9 130 64 31 45 32 49 32 151 0 58 -4 116
-9 130 -6 19 -5 22 4 14 6 -6 17 -49 25 -95 8 -53 13 -70 14 -47 2 55 -18 135
-40 160 -17 21 -18 21 -12 3 4 -13 -6 -7 -29 18 -31 32 -41 37 -81 37 -38 0
-53 -6 -82 -31z m49 -15 c9 -3 13 -10 10 -15 -3 -5 8 -6 25 -3 26 6 33 2 51
-27 29 -48 27 -183 -3 -216 -24 -27 -54 -29 -87 -6 -22 16 -23 16 -17 0 10
-26 -6 -20 -27 10 -27 36 -32 118 -12 167 9 21 13 42 10 48 -3 5 2 18 12 29
20 22 17 21 38 13z"/>
<path d="M1396 1614 c-19 -18 -21 -28 -4 -18 8 5 9 2 3 -12 -40 -95 -43 -160
-11 -193 12 -11 16 -12 16 -2 0 8 9 5 26 -8 15 -12 33 -21 40 -21 17 0 54 36
54 52 0 7 -7 2 -16 -10 -35 -51 -104 -5 -104 70 0 97 75 159 100 82 13 -38 6
-119 -11 -130 -6 -3 -7 5 -4 23 l7 28 -14 -25 c-20 -37 -45 -37 -53 -1 -4 17
-4 46 -1 64 5 24 4 27 -3 12 -17 -37 -12 -83 12 -111 30 -34 52 -27 74 23 20
48 12 129 -16 157 -19 18 -21 18 -45 2 -42 -27 -59 -72 -53 -138 5 -62 -6 -71
-17 -13 -8 43 7 103 35 139 11 14 15 26 9 26 -6 0 -8 5 -5 10 9 15 -2 12 -19
-6z"/>
<path d="M1442 1568 c-6 -6 -12 -16 -12 -22 0 -6 5 -5 12 2 17 17 36 15 42 -5
3 -11 4 -8 3 7 -2 28 -26 37 -45 18z"/>
<path d="M1453 1539 c-18 -22 -22 -99 -4 -99 14 0 28 52 22 84 -5 24 -8 27
-18 15z"/>
<path d="M1330 1392 c0 -23 29 -70 56 -91 17 -13 41 -21 65 -21 51 0 58 15 7
16 -47 2 -84 26 -109 74 -11 19 -19 29 -19 22z"/>
<path d="M1760 930 c-36 -37 -76 -74 -90 -83 -14 -9 -20 -16 -13 -16 13 -1
181 155 173 161 -3 2 -34 -26 -70 -62z"/>
<path d="M1858 965 c-19 -30 -33 -56 -30 -59 3 -3 21 19 40 50 19 30 32 57 30
59 -2 3 -20 -20 -40 -50z"/>
<path d="M1345 2163 c-50 -11 -184 -58 -226 -79 -52 -26 -153 -103 -145 -111
2 -3 31 15 63 39 70 54 99 69 205 109 53 19 114 34 168 38 83 8 84 8 20 8 -36
1 -74 -1 -85 -4z"/>
<path d="M1950 1435 c0 -3 18 -33 40 -65 22 -32 40 -64 40 -69 0 -6 5 -10 12
-8 7 1 20 -20 30 -48 17 -49 17 -49 11 -10 -3 22 -9 45 -13 50 -48 65 -120
156 -120 150z"/>
<path d="M946 1228 c-8 -33 -7 -128 2 -128 4 0 8 34 8 75 1 41 0 75 -1 75 -2
0 -5 -10 -9 -22z"/>
<path d="M915 1145 c-4 -48 -5 -89 -2 -91 2 -3 8 34 12 81 4 48 5 89 2 91 -2
3 -8 -34 -12 -81z"/>
<path d="M2006 1114 c-4 -58 -5 -108 -3 -111 3 -2 8 43 12 102 4 58 5 108 3
111 -3 2 -8 -43 -12 -102z"/>
<path d="M2062 1185 c-2 -28 12 -55 28 -55 3 0 6 10 7 23 0 12 -1 16 -4 10 -9
-23 -22 -13 -26 20 l-4 32 -1 -30z"/>
<path d="M966 1099 c-6 -31 19 -109 36 -109 5 0 6 -6 2 -12 -4 -7 -4 -10 1 -6
4 4 40 -21 80 -55 129 -110 273 -164 410 -154 61 5 142 24 133 32 -2 2 -32 -3
-68 -11 -78 -16 -216 -3 -286 26 -133 57 -306 212 -304 272 1 7 10 -4 20 -24
11 -20 24 -40 30 -43 14 -9 13 -7 -19 57 -28 56 -29 56 -35 27z"/>
<path d="M941 1068 c-2 -57 73 -180 149 -245 56 -47 242 -105 328 -102 33 2
34 2 7 6 -78 10 -189 35 -232 54 -30 13 -75 49 -124 97 -80 81 -103 117 -118
179 -7 31 -9 33 -10 11z"/>
<path d="M926 996 c5 -27 4 -28 -12 -15 -12 9 -7 -7 14 -46 32 -59 53 -88 114
-153 162 -174 513 -219 723 -94 85 51 186 154 229 234 49 90 45 100 -5 13 -46
-80 -145 -180 -222 -224 -29 -16 -88 -40 -132 -52 -160 -44 -383 -8 -516 83
-75 50 -189 183 -189 219 0 6 8 3 18 -8 9 -10 14 -14 10 -8 -3 5 -13 26 -22
45 -15 33 -16 33 -10 6z"/>
<path d="M1946 937 c-3 -13 -17 -40 -30 -60 -14 -20 -19 -34 -12 -31 15 6 62
101 54 109 -3 3 -8 -5 -12 -18z"/>
<path d="M1000 878 c18 -26 44 -57 58 -70 14 -13 4 4 -23 37 -62 78 -76 92
-35 33z"/>
<path d="M1035 530 c-86 -4 -111 -7 -86 -12 42 -10 1008 -9 1076 1 126 17
-643 26 -990 11z"/>
</g>
</svg>
